# xmcd
#
# Track frame offsets: 
#        150
#        11016
#        28702
#        50225
#        76258
#        101623
#        155759
#
# Disc length: 2291 seconds
#
# Revision: 0
# Processed by: cddbd v1.5.2PL0 Copyright (c) Steve Scherf et al.
# Submitted via: ExactAudioCopy v0.95b3
#
DISCID=5308f107
DTITLE=Benny Goodman And His Orchestra  - Carnagie Hall Concert Disc 2
DYEAR=1900
DGENRE=
TTITLE0=Swingtime In The Rockies
TTITLE1=Bel Mir Bist Du Schon
TTITLE2=Benny goodman, Gene Krupa, and Teddy Wilson \\ Trio: China Boy
TTITLE3=Benny Goodman, Gene Krupa, Teddy Wilson and Lionel Hampton \\ 
TTITLE3=Quartet: Stompin' At The Savoy
TTITLE4=Benny Goodman, Gene Krupa, Teddy Wilson and Lionel Hampton \\ 
TTITLE4=Quartet: Dizzy Spells
TTITLE5=Sing, Sing, Sing!
TTITLE6=Finale: Big John's Special
EXTD=
EXTT0=
EXTT1=
EXTT2=
EXTT3=
EXTT4=
EXTT5=
EXTT6=
PLAYORDER=
